<svg width="180" height="38" viewBox="0 0 180 38" fill="none" xmlns="http://www.w3.org/2000/svg">
<g clip-path="url(#clip0_217_5)">
<rect width="180" height="38" fill="white"/>
<path d="M10 1H170C174.971 1 179 5.02944 179 10V28C179 32.9706 174.971 37 170 37H10C5.02944 37 1 32.9706 1 28V10C1 5.02944 5.02944 1 10 1Z" fill="#3265A1" stroke="#3265A1" stroke-width="2" stroke-linejoin="round"/>
<path d="M65.8388 25V13.3636H69.907C70.7176 13.3636 71.3861 13.5038 71.9126 13.7841C72.4392 14.0606 72.8312 14.4337 73.0888 14.9034C73.3464 15.3693 73.4751 15.8864 73.4751 16.4545C73.4751 16.9545 73.3861 17.3674 73.2081 17.6932C73.0339 18.0189 72.8028 18.2765 72.5149 18.4659C72.2308 18.6553 71.9221 18.7955 71.5888 18.8864V19C71.9448 19.0227 72.3028 19.1477 72.6626 19.375C73.0225 19.6023 73.3236 19.928 73.5661 20.3523C73.8085 20.7765 73.9297 21.2955 73.9297 21.9091C73.9297 22.4924 73.7971 23.017 73.532 23.483C73.2668 23.9489 72.8482 24.3182 72.2763 24.5909C71.7043 24.8636 70.96 25 70.0433 25H65.8388ZM67.2479 23.75H70.0433C70.9638 23.75 71.6172 23.572 72.0036 23.2159C72.3937 22.8561 72.5888 22.4205 72.5888 21.9091C72.5888 21.5152 72.4884 21.1515 72.2876 20.8182C72.0869 20.4811 71.8009 20.2121 71.4297 20.0114C71.0585 19.8068 70.6191 19.7045 70.1115 19.7045H67.2479V23.75ZM67.2479 18.4773H69.8615C70.2857 18.4773 70.6683 18.3939 71.0092 18.2273C71.3539 18.0606 71.6267 17.8258 71.8274 17.5227C72.032 17.2197 72.1342 16.8636 72.1342 16.4545C72.1342 15.9432 71.9562 15.5095 71.6001 15.1534C71.2441 14.7936 70.6797 14.6136 69.907 14.6136H67.2479V18.4773ZM81.5632 21.4318V16.2727H82.9041V25H81.5632V23.5227H81.4723C81.2678 23.9659 80.9496 24.3428 80.5178 24.6534C80.0859 24.9602 79.5405 25.1136 78.8814 25.1136C78.3359 25.1136 77.8511 24.9943 77.4268 24.7557C77.0026 24.5133 76.6693 24.1496 76.4268 23.6648C76.1844 23.1761 76.0632 22.5606 76.0632 21.8182V16.2727H77.4041V21.7273C77.4041 22.3636 77.5821 22.8712 77.9382 23.25C78.2981 23.6288 78.7564 23.8182 79.3132 23.8182C79.6465 23.8182 79.9856 23.733 80.3303 23.5625C80.6787 23.392 80.9704 23.1307 81.2053 22.7784C81.4439 22.4261 81.5632 21.9773 81.5632 21.4318ZM89.1555 16.2727V17.4091H84.6328V16.2727H89.1555ZM85.951 14.1818H87.2919V22.5C87.2919 22.8788 87.3468 23.1629 87.4567 23.3523C87.5703 23.5379 87.7143 23.6629 87.8885 23.7273C88.0665 23.7879 88.254 23.8182 88.451 23.8182C88.5987 23.8182 88.7199 23.8106 88.8146 23.7955C88.9093 23.7765 88.9851 23.7614 89.0419 23.75L89.3146 24.9545C89.2237 24.9886 89.0968 25.0227 88.9339 25.0568C88.7711 25.0947 88.5646 25.1136 88.3146 25.1136C87.9358 25.1136 87.5646 25.0322 87.201 24.8693C86.8411 24.7064 86.5419 24.4583 86.3033 24.125C86.0684 23.7917 85.951 23.3712 85.951 22.8636V14.1818ZM94.968 16.2727V17.4091H90.4453V16.2727H94.968ZM91.7635 14.1818H93.1044V22.5C93.1044 22.8788 93.1593 23.1629 93.2692 23.3523C93.3828 23.5379 93.5268 23.6629 93.701 23.7273C93.879 23.7879 94.0665 23.8182 94.2635 23.8182C94.4112 23.8182 94.5324 23.8106 94.6271 23.7955C94.7218 23.7765 94.7976 23.7614 94.8544 23.75L95.1271 24.9545C95.0362 24.9886 94.9093 25.0227 94.7464 25.0568C94.5836 25.0947 94.3771 25.1136 94.1271 25.1136C93.7483 25.1136 93.3771 25.0322 93.0135 24.8693C92.6536 24.7064 92.3544 24.4583 92.1158 24.125C91.8809 23.7917 91.7635 23.3712 91.7635 22.8636V14.1818ZM100.437 25.1818C99.6489 25.1818 98.9576 24.9943 98.3629 24.6193C97.772 24.2443 97.3099 23.7197 96.9766 23.0455C96.647 22.3712 96.4822 21.5833 96.4822 20.6818C96.4822 19.7727 96.647 18.9792 96.9766 18.3011C97.3099 17.6231 97.772 17.0966 98.3629 16.7216C98.9576 16.3466 99.6489 16.1591 100.437 16.1591C101.225 16.1591 101.914 16.3466 102.505 16.7216C103.1 17.0966 103.562 17.6231 103.891 18.3011C104.225 18.9792 104.391 19.7727 104.391 20.6818C104.391 21.5833 104.225 22.3712 103.891 23.0455C103.562 23.7197 103.1 24.2443 102.505 24.6193C101.914 24.9943 101.225 25.1818 100.437 25.1818ZM100.437 23.9773C101.035 23.9773 101.528 23.8239 101.914 23.517C102.3 23.2102 102.586 22.8068 102.772 22.3068C102.958 21.8068 103.05 21.2652 103.05 20.6818C103.05 20.0985 102.958 19.5549 102.772 19.0511C102.586 18.5473 102.3 18.1402 101.914 17.8295C101.528 17.5189 101.035 17.3636 100.437 17.3636C99.8383 17.3636 99.3459 17.5189 98.9595 17.8295C98.5732 18.1402 98.2872 18.5473 98.1016 19.0511C97.916 19.5549 97.8232 20.0985 97.8232 20.6818C97.8232 21.2652 97.916 21.8068 98.1016 22.3068C98.2872 22.8068 98.5732 23.2102 98.9595 23.517C99.3459 23.8239 99.8383 23.9773 100.437 23.9773ZM107.779 19.75V25H106.438V16.2727H107.734V17.6364H107.847C108.052 17.1932 108.362 16.8371 108.779 16.5682C109.196 16.2955 109.734 16.1591 110.393 16.1591C110.984 16.1591 111.501 16.2803 111.944 16.5227C112.387 16.7614 112.732 17.125 112.978 17.6136C113.224 18.0985 113.347 18.7121 113.347 19.4545V25H112.006V19.5455C112.006 18.8598 111.828 18.3258 111.472 17.9432C111.116 17.5568 110.628 17.3636 110.006 17.3636C109.578 17.3636 109.196 17.4564 108.859 17.642C108.525 17.8277 108.262 18.0985 108.069 18.4545C107.876 18.8106 107.779 19.2424 107.779 19.75Z" fill="white"/>
</g>
<defs>
<clipPath id="clip0_217_5">
<rect width="180" height="38" fill="white"/>
</clipPath>
</defs>
</svg>
