<svg width="458.15999999999997" height="352.5" class="s-YF1DhM2Oq0sW"><g transform="translate(30, 40)" class="s-YF1DhM2Oq0sW"><g class="s-YF1DhM2Oq0sW"><g class="s-YF1DhM2Oq0sW"><circle cx="26.368932038834952" cy="0" r="1.130097087378641" fill="#ffa500" class="s-YF1DhM2Oq0sW"></circle><circle cx="30.135922330097085" cy="0" r="1.130097087378641" fill="#ffa500" class="s-YF1DhM2Oq0sW"></circle><circle cx="33.90291262135923" cy="0" r="1.130097087378641" fill="#ffa500" class="s-YF1DhM2Oq0sW"></circle><circle cx="37.66990291262136" cy="0" r="1.130097087378641" fill="#ffa500" class="s-YF1DhM2Oq0sW"></circle><circle cx="30.135922330097085" cy="3.7916666666666665" r="1.130097087378641" fill="#ffa500" class="s-YF1DhM2Oq0sW"></circle><circle cx="41.43689320388349" cy="3.7916666666666665" r="1.130097087378641" fill="#ffa500" class="s-YF1DhM2Oq0sW"></circle><circle cx="30.135922330097085" cy="7.583333333333333" r="1.130097087378641" fill="#ffa500" class="s-YF1DhM2Oq0sW"></circle><circle cx="41.43689320388349" cy="7.583333333333333" r="1.130097087378641" fill="#ffa500" class="s-YF1DhM2Oq0sW"></circle><circle cx="30.135922330097085" cy="11.375" r="1.130097087378641" fill="#ffa500" class="s-YF1DhM2Oq0sW"></circle><circle cx="33.90291262135923" cy="11.375" r="1.130097087378641" fill="#ffa500" class="s-YF1DhM2Oq0sW"></circle><circle cx="37.66990291262136" cy="11.375" r="1.130097087378641" fill="#ffa500" class="s-YF1DhM2Oq0sW"></circle><circle cx="30.135922330097085" cy="15.166666666666666" r="1.130097087378641" fill="#ffa500" class="s-YF1DhM2Oq0sW"></circle><circle cx="41.43689320388349" cy="15.166666666666666" r="1.130097087378641" fill="#ffa500" class="s-YF1DhM2Oq0sW"></circle><circle cx="30.135922330097085" cy="18.958333333333336" r="1.130097087378641" fill="#ffa500" class="s-YF1DhM2Oq0sW"></circle><circle cx="41.43689320388349" cy="18.958333333333336" r="1.130097087378641" fill="#ffa500" class="s-YF1DhM2Oq0sW"></circle><circle cx="26.368932038834952" cy="22.75" r="1.130097087378641" fill="#ffa500" class="s-YF1DhM2Oq0sW"></circle><circle cx="30.135922330097085" cy="22.75" r="1.130097087378641" fill="#ffa500" class="s-YF1DhM2Oq0sW"></circle><circle cx="33.90291262135923" cy="22.75" r="1.130097087378641" fill="#ffa500" class="s-YF1DhM2Oq0sW"></circle><circle cx="37.66990291262136" cy="22.75" r="1.130097087378641" fill="#ffa500" class="s-YF1DhM2Oq0sW"></circle><circle cx="52.737864077669904" cy="0" r="1.130097087378641" fill="#ffa500" class="s-YF1DhM2Oq0sW"></circle><circle cx="56.50485436893204" cy="0" r="1.130097087378641" fill="#ffa500" class="s-YF1DhM2Oq0sW"></circle><circle cx="60.27184466019417" cy="0" r="1.130097087378641" fill="#ffa500" class="s-YF1DhM2Oq0sW"></circle><circle cx="64.03883495145631" cy="0" r="1.130097087378641" fill="#ffa500" class="s-YF1DhM2Oq0sW"></circle><circle cx="52.737864077669904" cy="3.7916666666666665" r="1.130097087378641" fill="#ffa500" class="s-YF1DhM2Oq0sW"></circle><circle cx="67.80582524271846" cy="3.7916666666666665" r="1.130097087378641" fill="#ffa500" class="s-YF1DhM2Oq0sW"></circle><circle cx="52.737864077669904" cy="7.583333333333333" r="1.130097087378641" fill="#ffa500" class="s-YF1DhM2Oq0sW"></circle><circle cx="67.80582524271846" cy="7.583333333333333" r="1.130097087378641" fill="#ffa500" class="s-YF1DhM2Oq0sW"></circle><circle cx="52.737864077669904" cy="11.375" r="1.130097087378641" fill="#ffa500" class="s-YF1DhM2Oq0sW"></circle><circle cx="56.50485436893204" cy="11.375" r="1.130097087378641" fill="#ffa500" class="s-YF1DhM2Oq0sW"></circle><circle cx="60.27184466019417" cy="11.375" r="1.130097087378641" fill="#ffa500" class="s-YF1DhM2Oq0sW"></circle><circle cx="64.03883495145631" cy="11.375" r="1.130097087378641" fill="#ffa500" class="s-YF1DhM2Oq0sW"></circle><circle cx="52.737864077669904" cy="15.166666666666666" r="1.130097087378641" fill="#ffa500" class="s-YF1DhM2Oq0sW"></circle><circle cx="60.27184466019417" cy="15.166666666666666" r="1.130097087378641" fill="#ffa500" class="s-YF1DhM2Oq0sW"></circle><circle cx="52.737864077669904" cy="18.958333333333336" r="1.130097087378641" fill="#ffa500" class="s-YF1DhM2Oq0sW"></circle><circle cx="64.03883495145631" cy="18.958333333333336" r="1.130097087378641" fill="#ffa500" class="s-YF1DhM2Oq0sW"></circle><circle cx="52.737864077669904" cy="22.75" r="1.130097087378641" fill="#ffa500" class="s-YF1DhM2Oq0sW"></circle><circle cx="67.80582524271846" cy="22.75" r="1.130097087378641" fill="#ffa500" class="s-YF1DhM2Oq0sW"></circle><circle cx="82.87378640776699" cy="0" r="1.130097087378641" fill="#ffa500" class="s-YF1DhM2Oq0sW"></circle><circle cx="86.64077669902913" cy="0" r="1.130097087378641" fill="#ffa500" class="s-YF1DhM2Oq0sW"></circle><circle cx="90.40776699029126" cy="0" r="1.130097087378641" fill="#ffa500" class="s-YF1DhM2Oq0sW"></circle><circle cx="86.64077669902913" cy="3.7916666666666665" r="1.130097087378641" fill="#ffa500" class="s-YF1DhM2Oq0sW"></circle><circle cx="86.64077669902913" cy="7.583333333333333" r="1.130097087378641" fill="#ffa500" class="s-YF1DhM2Oq0sW"></circle><circle cx="86.64077669902913" cy="11.375" r="1.130097087378641" fill="#ffa500" class="s-YF1DhM2Oq0sW"></circle><circle cx="86.64077669902913" cy="15.166666666666666" r="1.130097087378641" fill="#ffa500" class="s-YF1DhM2Oq0sW"></circle><circle cx="86.64077669902913" cy="18.958333333333336" r="1.130097087378641" fill="#ffa500" class="s-YF1DhM2Oq0sW"></circle><circle cx="82.87378640776699" cy="22.75" r="1.130097087378641" fill="#ffa500" class="s-YF1DhM2Oq0sW"></circle><circle cx="86.64077669902913" cy="22.75" r="1.130097087378641" fill="#ffa500" class="s-YF1DhM2Oq0sW"></circle><circle cx="90.40776699029126" cy="22.75" r="1.130097087378641" fill="#ffa500" class="s-YF1DhM2Oq0sW"></circle><circle cx="109.24271844660194" cy="0" r="1.130097087378641" fill="#ffa500" class="s-YF1DhM2Oq0sW"></circle><circle cx="113.00970873786407" cy="0" r="1.130097087378641" fill="#ffa500" class="s-YF1DhM2Oq0sW"></circle><circle cx="116.7766990291262" cy="0" r="1.130097087378641" fill="#ffa500" class="s-YF1DhM2Oq0sW"></circle><circle cx="105.47572815533981" cy="3.7916666666666665" r="1.130097087378641" fill="#ffa500" class="s-YF1DhM2Oq0sW"></circle><circle cx="120.54368932038834" cy="3.7916666666666665" r="1.130097087378641" fill="#ffa500" class="s-YF1DhM2Oq0sW"></circle><circle cx="105.47572815533981" cy="7.583333333333333" r="1.130097087378641" fill="#ffa500" class="s-YF1DhM2Oq0sW"></circle><circle cx="109.24271844660194" cy="11.375" r="1.130097087378641" fill="#ffa500" class="s-YF1DhM2Oq0sW"></circle><circle cx="113.00970873786407" cy="11.375" r="1.130097087378641" fill="#ffa500" class="s-YF1DhM2Oq0sW"></circle><circle cx="116.7766990291262" cy="11.375" r="1.130097087378641" fill="#ffa500" class="s-YF1DhM2Oq0sW"></circle><circle cx="120.54368932038834" cy="15.166666666666666" r="1.130097087378641" fill="#ffa500" class="s-YF1DhM2Oq0sW"></circle><circle cx="105.47572815533981" cy="18.958333333333336" r="1.130097087378641" fill="#ffa500" class="s-YF1DhM2Oq0sW"></circle><circle cx="120.54368932038834" cy="18.958333333333336" r="1.130097087378641" fill="#ffa500" class="s-YF1DhM2Oq0sW"></circle><circle cx="109.24271844660194" cy="22.75" r="1.130097087378641" fill="#ffa500" class="s-YF1DhM2Oq0sW"></circle><circle cx="113.00970873786407" cy="22.75" r="1.130097087378641" fill="#ffa500" class="s-YF1DhM2Oq0sW"></circle><circle cx="116.7766990291262" cy="22.75" r="1.130097087378641" fill="#ffa500" class="s-YF1DhM2Oq0sW"></circle><circle cx="131.84466019417476" cy="0" r="1.130097087378641" fill="#ffa500" class="s-YF1DhM2Oq0sW"></circle><circle cx="135.6116504854369" cy="0" r="1.130097087378641" fill="#ffa500" class="s-YF1DhM2Oq0sW"></circle><circle cx="139.37864077669903" cy="0" r="1.130097087378641" fill="#ffa500" class="s-YF1DhM2Oq0sW"></circle><circle cx="143.14563106796118" cy="0" r="1.130097087378641" fill="#ffa500" class="s-YF1DhM2Oq0sW"></circle><circle cx="146.9126213592233" cy="0" r="1.130097087378641" fill="#ffa500" class="s-YF1DhM2Oq0sW"></circle><circle cx="139.37864077669903" cy="3.7916666666666665" r="1.130097087378641" fill="#ffa500" class="s-YF1DhM2Oq0sW"></circle><circle cx="139.37864077669903" cy="7.583333333333333" r="1.130097087378641" fill="#ffa500" class="s-YF1DhM2Oq0sW"></circle><circle cx="139.37864077669903" cy="11.375" r="1.130097087378641" fill="#ffa500" class="s-YF1DhM2Oq0sW"></circle><circle cx="139.37864077669903" cy="15.166666666666666" r="1.130097087378641" fill="#ffa500" class="s-YF1DhM2Oq0sW"></circle><circle cx="139.37864077669903" cy="18.958333333333336" r="1.130097087378641" fill="#ffa500" class="s-YF1DhM2Oq0sW"></circle><circle cx="139.37864077669903" cy="22.75" r="1.130097087378641" fill="#ffa500" class="s-YF1DhM2Oq0sW"></circle><circle cx="161.98058252427182" cy="0" r="1.130097087378641" fill="#ffa500" class="s-YF1DhM2Oq0sW"></circle><circle cx="165.74757281553397" cy="0" r="1.130097087378641" fill="#ffa500" class="s-YF1DhM2Oq0sW"></circle><circle cx="169.51456310679612" cy="0" r="1.130097087378641" fill="#ffa500" class="s-YF1DhM2Oq0sW"></circle><circle cx="158.2135922330097" cy="3.7916666666666665" r="1.130097087378641" fill="#ffa500" class="s-YF1DhM2Oq0sW"></circle><circle cx="173.28155339805826" cy="3.7916666666666665" r="1.130097087378641" fill="#ffa500" class="s-YF1DhM2Oq0sW"></circle><circle cx="158.2135922330097" cy="7.583333333333333" r="1.130097087378641" fill="#ffa500" class="s-YF1DhM2Oq0sW"></circle><circle cx="173.28155339805826" cy="7.583333333333333" r="1.130097087378641" fill="#ffa500" class="s-YF1DhM2Oq0sW"></circle><circle cx="158.2135922330097" cy="11.375" r="1.130097087378641" fill="#ffa500" class="s-YF1DhM2Oq0sW"></circle><circle cx="173.28155339805826" cy="11.375" r="1.130097087378641" fill="#ffa500" class="s-YF1DhM2Oq0sW"></circle><circle cx="158.2135922330097" cy="15.166666666666666" r="1.130097087378641" fill="#ffa500" class="s-YF1DhM2Oq0sW"></circle><circle cx="173.28155339805826" cy="15.166666666666666" r="1.130097087378641" fill="#ffa500" class="s-YF1DhM2Oq0sW"></circle><circle cx="158.2135922330097" cy="18.958333333333336" r="1.130097087378641" fill="#ffa500" class="s-YF1DhM2Oq0sW"></circle><circle cx="173.28155339805826" cy="18.958333333333336" r="1.130097087378641" fill="#ffa500" class="s-YF1DhM2Oq0sW"></circle><circle cx="161.98058252427182" cy="22.75" r="1.130097087378641" fill="#ffa500" class="s-YF1DhM2Oq0sW"></circle><circle cx="165.74757281553397" cy="22.75" r="1.130097087378641" fill="#ffa500" class="s-YF1DhM2Oq0sW"></circle><circle cx="169.51456310679612" cy="22.75" r="1.130097087378641" fill="#ffa500" class="s-YF1DhM2Oq0sW"></circle><circle cx="184.58252427184468" cy="0" r="1.130097087378641" fill="#ffa500" class="s-YF1DhM2Oq0sW"></circle><circle cx="184.58252427184468" cy="3.7916666666666665" r="1.130097087378641" fill="#ffa500" class="s-YF1DhM2Oq0sW"></circle><circle cx="184.58252427184468" cy="7.583333333333333" r="1.130097087378641" fill="#ffa500" class="s-YF1DhM2Oq0sW"></circle><circle cx="184.58252427184468" cy="11.375" r="1.130097087378641" fill="#ffa500" class="s-YF1DhM2Oq0sW"></circle><circle cx="184.58252427184468" cy="15.166666666666666" r="1.130097087378641" fill="#ffa500" class="s-YF1DhM2Oq0sW"></circle><circle cx="184.58252427184468" cy="18.958333333333336" r="1.130097087378641" fill="#ffa500" class="s-YF1DhM2Oq0sW"></circle><circle cx="184.58252427184468" cy="22.75" r="1.130097087378641" fill="#ffa500" class="s-YF1DhM2Oq0sW"></circle><circle cx="188.3495145631068" cy="22.75" r="1.130097087378641" fill="#ffa500" class="s-YF1DhM2Oq0sW"></circle><circle cx="192.11650485436894" cy="22.75" r="1.130097087378641" fill="#ffa500" class="s-YF1DhM2Oq0sW"></circle><circle cx="195.88349514563106" cy="22.75" r="1.130097087378641" fill="#ffa500" class="s-YF1DhM2Oq0sW"></circle><circle cx="199.6504854368932" cy="22.75" r="1.130097087378641" fill="#ffa500" class="s-YF1DhM2Oq0sW"></circle><circle cx="237.32038834951453" cy="0" r="1.130097087378641" fill="#ffa500" class="s-YF1DhM2Oq0sW"></circle><circle cx="241.08737864077668" cy="0" r="1.130097087378641" fill="#ffa500" class="s-YF1DhM2Oq0sW"></circle><circle cx="244.85436893203885" cy="0" r="1.130097087378641" fill="#ffa500" class="s-YF1DhM2Oq0sW"></circle><circle cx="248.621359223301" cy="0" r="1.130097087378641" fill="#ffa500" class="s-YF1DhM2Oq0sW"></circle><circle cx="237.32038834951453" cy="3.7916666666666665" r="1.130097087378641" fill="#ffa500" class="s-YF1DhM2Oq0sW"></circle><circle cx="252.38834951456312" cy="3.7916666666666665" r="1.130097087378641" fill="#ffa500" class="s-YF1DhM2Oq0sW"></circle><circle cx="237.32038834951453" cy="7.583333333333333" r="1.130097087378641" fill="#ffa500" class="s-YF1DhM2Oq0sW"></circle><circle cx="252.38834951456312" cy="7.583333333333333" r="1.130097087378641" fill="#ffa500" class="s-YF1DhM2Oq0sW"></circle><circle cx="237.32038834951453" cy="11.375" r="1.130097087378641" fill="#ffa500" class="s-YF1DhM2Oq0sW"></circle><circle cx="241.08737864077668" cy="11.375" r="1.130097087378641" fill="#ffa500" class="s-YF1DhM2Oq0sW"></circle><circle cx="244.85436893203885" cy="11.375" r="1.130097087378641" fill="#ffa500" class="s-YF1DhM2Oq0sW"></circle><circle cx="248.621359223301" cy="11.375" r="1.130097087378641" fill="#ffa500" class="s-YF1DhM2Oq0sW"></circle><circle cx="237.32038834951453" cy="15.166666666666666" r="1.130097087378641" fill="#ffa500" class="s-YF1DhM2Oq0sW"></circle><circle cx="244.85436893203885" cy="15.166666666666666" r="1.130097087378641" fill="#ffa500" class="s-YF1DhM2Oq0sW"></circle><circle cx="237.32038834951453" cy="18.958333333333336" r="1.130097087378641" fill="#ffa500" class="s-YF1DhM2Oq0sW"></circle><circle cx="248.621359223301" cy="18.958333333333336" r="1.130097087378641" fill="#ffa500" class="s-YF1DhM2Oq0sW"></circle><circle cx="237.32038834951453" cy="22.75" r="1.130097087378641" fill="#ffa500" class="s-YF1DhM2Oq0sW"></circle><circle cx="252.38834951456312" cy="22.75" r="1.130097087378641" fill="#ffa500" class="s-YF1DhM2Oq0sW"></circle><circle cx="267.45631067961165" cy="0" r="1.130097087378641" fill="#ffa500" class="s-YF1DhM2Oq0sW"></circle><circle cx="271.2233009708738" cy="0" r="1.130097087378641" fill="#ffa500" class="s-YF1DhM2Oq0sW"></circle><circle cx="274.99029126213594" cy="0" r="1.130097087378641" fill="#ffa500" class="s-YF1DhM2Oq0sW"></circle><circle cx="263.68932038834953" cy="3.7916666666666665" r="1.130097087378641" fill="#ffa500" class="s-YF1DhM2Oq0sW"></circle><circle cx="278.75728155339806" cy="3.7916666666666665" r="1.130097087378641" fill="#ffa500" class="s-YF1DhM2Oq0sW"></circle><circle cx="263.68932038834953" cy="7.583333333333333" r="1.130097087378641" fill="#ffa500" class="s-YF1DhM2Oq0sW"></circle><circle cx="278.75728155339806" cy="7.583333333333333" r="1.130097087378641" fill="#ffa500" class="s-YF1DhM2Oq0sW"></circle><circle cx="263.68932038834953" cy="11.375" r="1.130097087378641" fill="#ffa500" class="s-YF1DhM2Oq0sW"></circle><circle cx="278.75728155339806" cy="11.375" r="1.130097087378641" fill="#ffa500" class="s-YF1DhM2Oq0sW"></circle><circle cx="263.68932038834953" cy="15.166666666666666" r="1.130097087378641" fill="#ffa500" class="s-YF1DhM2Oq0sW"></circle><circle cx="278.75728155339806" cy="15.166666666666666" r="1.130097087378641" fill="#ffa500" class="s-YF1DhM2Oq0sW"></circle><circle cx="263.68932038834953" cy="18.958333333333336" r="1.130097087378641" fill="#ffa500" class="s-YF1DhM2Oq0sW"></circle><circle cx="278.75728155339806" cy="18.958333333333336" r="1.130097087378641" fill="#ffa500" class="s-YF1DhM2Oq0sW"></circle><circle cx="267.45631067961165" cy="22.75" r="1.130097087378641" fill="#ffa500" class="s-YF1DhM2Oq0sW"></circle><circle cx="271.2233009708738" cy="22.75" r="1.130097087378641" fill="#ffa500" class="s-YF1DhM2Oq0sW"></circle><circle cx="274.99029126213594" cy="22.75" r="1.130097087378641" fill="#ffa500" class="s-YF1DhM2Oq0sW"></circle><circle cx="297.5922330097087" cy="0" r="1.130097087378641" fill="#ffa500" class="s-YF1DhM2Oq0sW"></circle><circle cx="293.8252427184466" cy="3.7916666666666665" r="1.130097087378641" fill="#ffa500" class="s-YF1DhM2Oq0sW"></circle><circle cx="301.3592233009709" cy="3.7916666666666665" r="1.130097087378641" fill="#ffa500" class="s-YF1DhM2Oq0sW"></circle><circle cx="290.05825242718447" cy="7.583333333333333" r="1.130097087378641" fill="#ffa500" class="s-YF1DhM2Oq0sW"></circle><circle cx="305.126213592233" cy="7.583333333333333" r="1.130097087378641" fill="#ffa500" class="s-YF1DhM2Oq0sW"></circle><circle cx="290.05825242718447" cy="11.375" r="1.130097087378641" fill="#ffa500" class="s-YF1DhM2Oq0sW"></circle><circle cx="305.126213592233" cy="11.375" r="1.130097087378641" fill="#ffa500" class="s-YF1DhM2Oq0sW"></circle><circle cx="290.05825242718447" cy="15.166666666666666" r="1.130097087378641" fill="#ffa500" class="s-YF1DhM2Oq0sW"></circle><circle cx="293.8252427184466" cy="15.166666666666666" r="1.130097087378641" fill="#ffa500" class="s-YF1DhM2Oq0sW"></circle><circle cx="297.5922330097087" cy="15.166666666666666" r="1.130097087378641" fill="#ffa500" class="s-YF1DhM2Oq0sW"></circle><circle cx="301.3592233009709" cy="15.166666666666666" r="1.130097087378641" fill="#ffa500" class="s-YF1DhM2Oq0sW"></circle><circle cx="305.126213592233" cy="15.166666666666666" r="1.130097087378641" fill="#ffa500" class="s-YF1DhM2Oq0sW"></circle><circle cx="290.05825242718447" cy="18.958333333333336" r="1.130097087378641" fill="#ffa500" class="s-YF1DhM2Oq0sW"></circle><circle cx="305.126213592233" cy="18.958333333333336" r="1.130097087378641" fill="#ffa500" class="s-YF1DhM2Oq0sW"></circle><circle cx="290.05825242718447" cy="22.75" r="1.130097087378641" fill="#ffa500" class="s-YF1DhM2Oq0sW"></circle><circle cx="305.126213592233" cy="22.75" r="1.130097087378641" fill="#ffa500" class="s-YF1DhM2Oq0sW"></circle><circle cx="316.4271844660194" cy="0" r="1.130097087378641" fill="#ffa500" class="s-YF1DhM2Oq0sW"></circle><circle cx="320.19417475728153" cy="0" r="1.130097087378641" fill="#ffa500" class="s-YF1DhM2Oq0sW"></circle><circle cx="323.96116504854365" cy="0" r="1.130097087378641" fill="#ffa500" class="s-YF1DhM2Oq0sW"></circle><circle cx="327.7281553398058" cy="0" r="1.130097087378641" fill="#ffa500" class="s-YF1DhM2Oq0sW"></circle><circle cx="320.19417475728153" cy="3.7916666666666665" r="1.130097087378641" fill="#ffa500" class="s-YF1DhM2Oq0sW"></circle><circle cx="331.49514563106794" cy="3.7916666666666665" r="1.130097087378641" fill="#ffa500" class="s-YF1DhM2Oq0sW"></circle><circle cx="320.19417475728153" cy="7.583333333333333" r="1.130097087378641" fill="#ffa500" class="s-YF1DhM2Oq0sW"></circle><circle cx="331.49514563106794" cy="7.583333333333333" r="1.130097087378641" fill="#ffa500" class="s-YF1DhM2Oq0sW"></circle><circle cx="320.19417475728153" cy="11.375" r="1.130097087378641" fill="#ffa500" class="s-YF1DhM2Oq0sW"></circle><circle cx="331.49514563106794" cy="11.375" r="1.130097087378641" fill="#ffa500" class="s-YF1DhM2Oq0sW"></circle><circle cx="320.19417475728153" cy="15.166666666666666" r="1.130097087378641" fill="#ffa500" class="s-YF1DhM2Oq0sW"></circle><circle cx="331.49514563106794" cy="15.166666666666666" r="1.130097087378641" fill="#ffa500" class="s-YF1DhM2Oq0sW"></circle><circle cx="320.19417475728153" cy="18.958333333333336" r="1.130097087378641" fill="#ffa500" class="s-YF1DhM2Oq0sW"></circle><circle cx="331.49514563106794" cy="18.958333333333336" r="1.130097087378641" fill="#ffa500" class="s-YF1DhM2Oq0sW"></circle><circle cx="316.4271844660194" cy="22.75" r="1.130097087378641" fill="#ffa500" class="s-YF1DhM2Oq0sW"></circle><circle cx="320.19417475728153" cy="22.75" r="1.130097087378641" fill="#ffa500" class="s-YF1DhM2Oq0sW"></circle><circle cx="323.96116504854365" cy="22.75" r="1.130097087378641" fill="#ffa500" class="s-YF1DhM2Oq0sW"></circle><circle cx="327.7281553398058" cy="22.75" r="1.130097087378641" fill="#ffa500" class="s-YF1DhM2Oq0sW"></circle></g><g class="s-YF1DhM2Oq0sW"><circle cx="56.50485436893204" cy="36.020833333333336" r="1.130097087378641" fill="#ffa500" class="s-YF1DhM2Oq0sW"></circle><circle cx="60.27184466019417" cy="36.020833333333336" r="1.130097087378641" fill="#ffa500" class="s-YF1DhM2Oq0sW"></circle><circle cx="64.03883495145631" cy="36.020833333333336" r="1.130097087378641" fill="#ffa500" class="s-YF1DhM2Oq0sW"></circle><circle cx="52.737864077669904" cy="39.8125" r="1.130097087378641" fill="#ffa500" class="s-YF1DhM2Oq0sW"></circle><circle cx="67.80582524271846" cy="39.8125" r="1.130097087378641" fill="#ffa500" class="s-YF1DhM2Oq0sW"></circle><circle cx="52.737864077669904" cy="43.604166666666664" r="1.130097087378641" fill="#ffa500" class="s-YF1DhM2Oq0sW"></circle><circle cx="52.737864077669904" cy="47.39583333333333" r="1.130097087378641" fill="#ffa500" class="s-YF1DhM2Oq0sW"></circle><circle cx="52.737864077669904" cy="51.1875" r="1.130097087378641" fill="#ffa500" class="s-YF1DhM2Oq0sW"></circle><circle cx="52.737864077669904" cy="54.97916666666667" r="1.130097087378641" fill="#ffa500" class="s-YF1DhM2Oq0sW"></circle><circle cx="67.80582524271846" cy="54.97916666666667" r="1.130097087378641" fill="#ffa500" class="s-YF1DhM2Oq0sW"></circle><circle cx="56.50485436893204" cy="58.770833333333336" r="1.130097087378641" fill="#ffa500" class="s-YF1DhM2Oq0sW"></circle><circle cx="60.27184466019417" cy="58.770833333333336" r="1.130097087378641" fill="#ffa500" class="s-YF1DhM2Oq0sW"></circle><circle cx="64.03883495145631" cy="58.770833333333336" r="1.130097087378641" fill="#ffa500" class="s-YF1DhM2Oq0sW"></circle><circle cx="79.10679611650485" cy="36.020833333333336" r="1.130097087378641" fill="#ffa500" class="s-YF1DhM2Oq0sW"></circle><circle cx="94.1747572815534" cy="36.020833333333336" r="1.130097087378641" fill="#ffa500" class="s-YF1DhM2Oq0sW"></circle><circle cx="79.10679611650485" cy="39.8125" r="1.130097087378641" fill="#ffa500" class="s-YF1DhM2Oq0sW"></circle><circle cx="94.1747572815534" cy="39.8125" r="1.130097087378641" fill="#ffa500" class="s-YF1DhM2Oq0sW"></circle><circle cx="79.10679611650485" cy="43.604166666666664" r="1.130097087378641" fill="#ffa500" class="s-YF1DhM2Oq0sW"></circle><circle cx="94.1747572815534" cy="43.604166666666664" r="1.130097087378641" fill="#ffa500" class="s-YF1DhM2Oq0sW"></circle><circle cx="82.87378640776699" cy="47.39583333333333" r="1.130097087378641" fill="#ffa500" class="s-YF1DhM2Oq0sW"></circle><circle cx="90.40776699029126" cy="47.39583333333333" r="1.130097087378641" fill="#ffa500" class="s-YF1DhM2Oq0sW"></circle><circle cx="86.64077669902913" cy="51.1875" r="1.130097087378641" fill="#ffa500" class="s-YF1DhM2Oq0sW"></circle><circle cx="86.64077669902913" cy="54.97916666666667" r="1.130097087378641" fill="#ffa500" class="s-YF1DhM2Oq0sW"></circle><circle cx="86.64077669902913" cy="58.770833333333336" r="1.130097087378641" fill="#ffa500" class="s-YF1DhM2Oq0sW"></circle><circle cx="109.24271844660194" cy="36.020833333333336" r="1.130097087378641" fill="#ffa500" class="s-YF1DhM2Oq0sW"></circle><circle cx="113.00970873786407" cy="36.020833333333336" r="1.130097087378641" fill="#ffa500" class="s-YF1DhM2Oq0sW"></circle><circle cx="116.7766990291262" cy="36.020833333333336" r="1.130097087378641" fill="#ffa500" class="s-YF1DhM2Oq0sW"></circle><circle cx="105.47572815533981" cy="39.8125" r="1.130097087378641" fill="#ffa500" class="s-YF1DhM2Oq0sW"></circle><circle cx="120.54368932038834" cy="39.8125" r="1.130097087378641" fill="#ffa500" class="s-YF1DhM2Oq0sW"></circle><circle cx="105.47572815533981" cy="43.604166666666664" r="1.130097087378641" fill="#ffa500" class="s-YF1DhM2Oq0sW"></circle><circle cx="105.47572815533981" cy="47.39583333333333" r="1.130097087378641" fill="#ffa500" class="s-YF1DhM2Oq0sW"></circle><circle cx="105.47572815533981" cy="51.1875" r="1.130097087378641" fill="#ffa500" class="s-YF1DhM2Oq0sW"></circle><circle cx="105.47572815533981" cy="54.97916666666667" r="1.130097087378641" fill="#ffa500" class="s-YF1DhM2Oq0sW"></circle><circle cx="120.54368932038834" cy="54.97916666666667" r="1.130097087378641" fill="#ffa500" class="s-YF1DhM2Oq0sW"></circle><circle cx="109.24271844660194" cy="58.770833333333336" r="1.130097087378641" fill="#ffa500" class="s-YF1DhM2Oq0sW"></circle><circle cx="113.00970873786407" cy="58.770833333333336" r="1.130097087378641" fill="#ffa500" class="s-YF1DhM2Oq0sW"></circle><circle cx="116.7766990291262" cy="58.770833333333336" r="1.130097087378641" fill="#ffa500" class="s-YF1DhM2Oq0sW"></circle><circle cx="131.84466019417476" cy="36.020833333333336" r="1.130097087378641" fill="#ffa500" class="s-YF1DhM2Oq0sW"></circle><circle cx="131.84466019417476" cy="39.8125" r="1.130097087378641" fill="#ffa500" class="s-YF1DhM2Oq0sW"></circle><circle cx="131.84466019417476" cy="43.604166666666664" r="1.130097087378641" fill="#ffa500" class="s-YF1DhM2Oq0sW"></circle><circle cx="131.84466019417476" cy="47.39583333333333" r="1.130097087378641" fill="#ffa500" class="s-YF1DhM2Oq0sW"></circle><circle cx="131.84466019417476" cy="51.1875" r="1.130097087378641" fill="#ffa500" class="s-YF1DhM2Oq0sW"></circle><circle cx="131.84466019417476" cy="54.97916666666667" r="1.130097087378641" fill="#ffa500" class="s-YF1DhM2Oq0sW"></circle><circle cx="131.84466019417476" cy="58.770833333333336" r="1.130097087378641" fill="#ffa500" class="s-YF1DhM2Oq0sW"></circle><circle cx="135.6116504854369" cy="58.770833333333336" r="1.130097087378641" fill="#ffa500" class="s-YF1DhM2Oq0sW"></circle><circle cx="139.37864077669903" cy="58.770833333333336" r="1.130097087378641" fill="#ffa500" class="s-YF1DhM2Oq0sW"></circle><circle cx="143.14563106796118" cy="58.770833333333336" r="1.130097087378641" fill="#ffa500" class="s-YF1DhM2Oq0sW"></circle><circle cx="146.9126213592233" cy="58.770833333333336" r="1.130097087378641" fill="#ffa500" class="s-YF1DhM2Oq0sW"></circle><circle cx="158.2135922330097" cy="36.020833333333336" r="1.130097087378641" fill="#ffa500" class="s-YF1DhM2Oq0sW"></circle><circle cx="161.98058252427182" cy="36.020833333333336" r="1.130097087378641" fill="#ffa500" class="s-YF1DhM2Oq0sW"></circle><circle cx="165.74757281553397" cy="36.020833333333336" r="1.130097087378641" fill="#ffa500" class="s-YF1DhM2Oq0sW"></circle><circle cx="169.51456310679612" cy="36.020833333333336" r="1.130097087378641" fill="#ffa500" class="s-YF1DhM2Oq0sW"></circle><circle cx="173.28155339805826" cy="36.020833333333336" r="1.130097087378641" fill="#ffa500" class="s-YF1DhM2Oq0sW"></circle><circle cx="158.2135922330097" cy="39.8125" r="1.130097087378641" fill="#ffa500" class="s-YF1DhM2Oq0sW"></circle><circle cx="158.2135922330097" cy="43.604166666666664" r="1.130097087378641" fill="#ffa500" class="s-YF1DhM2Oq0sW"></circle><circle cx="158.2135922330097" cy="47.39583333333333" r="1.130097087378641" fill="#ffa500" class="s-YF1DhM2Oq0sW"></circle><circle cx="161.98058252427182" cy="47.39583333333333" r="1.130097087378641" fill="#ffa500" class="s-YF1DhM2Oq0sW"></circle><circle cx="165.74757281553397" cy="47.39583333333333" r="1.130097087378641" fill="#ffa500" class="s-YF1DhM2Oq0sW"></circle><circle cx="169.51456310679612" cy="47.39583333333333" r="1.130097087378641" fill="#ffa500" class="s-YF1DhM2Oq0sW"></circle><circle cx="158.2135922330097" cy="51.1875" r="1.130097087378641" fill="#ffa500" class="s-YF1DhM2Oq0sW"></circle><circle cx="158.2135922330097" cy="54.97916666666667" r="1.130097087378641" fill="#ffa500" class="s-YF1DhM2Oq0sW"></circle><circle cx="158.2135922330097" cy="58.770833333333336" r="1.130097087378641" fill="#ffa500" class="s-YF1DhM2Oq0sW"></circle><circle cx="161.98058252427182" cy="58.770833333333336" r="1.130097087378641" fill="#ffa500" class="s-YF1DhM2Oq0sW"></circle><circle cx="165.74757281553397" cy="58.770833333333336" r="1.130097087378641" fill="#ffa500" class="s-YF1DhM2Oq0sW"></circle><circle cx="169.51456310679612" cy="58.770833333333336" r="1.130097087378641" fill="#ffa500" class="s-YF1DhM2Oq0sW"></circle><circle cx="173.28155339805826" cy="58.770833333333336" r="1.130097087378641" fill="#ffa500" class="s-YF1DhM2Oq0sW"></circle><circle cx="210.95145631067962" cy="36.020833333333336" r="1.130097087378641" fill="#ffa500" class="s-YF1DhM2Oq0sW"></circle><circle cx="210.95145631067962" cy="39.8125" r="1.130097087378641" fill="#ffa500" class="s-YF1DhM2Oq0sW"></circle><circle cx="210.95145631067962" cy="43.604166666666664" r="1.130097087378641" fill="#ffa500" class="s-YF1DhM2Oq0sW"></circle><circle cx="210.95145631067962" cy="47.39583333333333" r="1.130097087378641" fill="#ffa500" class="s-YF1DhM2Oq0sW"></circle><circle cx="210.95145631067962" cy="51.1875" r="1.130097087378641" fill="#ffa500" class="s-YF1DhM2Oq0sW"></circle><circle cx="210.95145631067962" cy="54.97916666666667" r="1.130097087378641" fill="#ffa500" class="s-YF1DhM2Oq0sW"></circle><circle cx="210.95145631067962" cy="58.770833333333336" r="1.130097087378641" fill="#ffa500" class="s-YF1DhM2Oq0sW"></circle><circle cx="214.71844660194174" cy="58.770833333333336" r="1.130097087378641" fill="#ffa500" class="s-YF1DhM2Oq0sW"></circle><circle cx="218.48543689320388" cy="58.770833333333336" r="1.130097087378641" fill="#ffa500" class="s-YF1DhM2Oq0sW"></circle><circle cx="222.252427184466" cy="58.770833333333336" r="1.130097087378641" fill="#ffa500" class="s-YF1DhM2Oq0sW"></circle><circle cx="226.01941747572815" cy="58.770833333333336" r="1.130097087378641" fill="#ffa500" class="s-YF1DhM2Oq0sW"></circle><circle cx="244.85436893203885" cy="36.020833333333336" r="1.130097087378641" fill="#ffa500" class="s-YF1DhM2Oq0sW"></circle><circle cx="241.08737864077668" cy="39.8125" r="1.130097087378641" fill="#ffa500" class="s-YF1DhM2Oq0sW"></circle><circle cx="248.621359223301" cy="39.8125" r="1.130097087378641" fill="#ffa500" class="s-YF1DhM2Oq0sW"></circle><circle cx="237.32038834951453" cy="43.604166666666664" r="1.130097087378641" fill="#ffa500" class="s-YF1DhM2Oq0sW"></circle><circle cx="252.38834951456312" cy="43.604166666666664" r="1.130097087378641" fill="#ffa500" class="s-YF1DhM2Oq0sW"></circle><circle cx="237.32038834951453" cy="47.39583333333333" r="1.130097087378641" fill="#ffa500" class="s-YF1DhM2Oq0sW"></circle><circle cx="252.38834951456312" cy="47.39583333333333" r="1.130097087378641" fill="#ffa500" class="s-YF1DhM2Oq0sW"></circle><circle cx="237.32038834951453" cy="51.1875" r="1.130097087378641" fill="#ffa500" class="s-YF1DhM2Oq0sW"></circle><circle cx="241.08737864077668" cy="51.1875" r="1.130097087378641" fill="#ffa500" class="s-YF1DhM2Oq0sW"></circle><circle cx="244.85436893203885" cy="51.1875" r="1.130097087378641" fill="#ffa500" class="s-YF1DhM2Oq0sW"></circle><circle cx="248.621359223301" cy="51.1875" r="1.130097087378641" fill="#ffa500" class="s-YF1DhM2Oq0sW"></circle><circle cx="252.38834951456312" cy="51.1875" r="1.130097087378641" fill="#ffa500" class="s-YF1DhM2Oq0sW"></circle><circle cx="237.32038834951453" cy="54.97916666666667" r="1.130097087378641" fill="#ffa500" class="s-YF1DhM2Oq0sW"></circle><circle cx="252.38834951456312" cy="54.97916666666667" r="1.130097087378641" fill="#ffa500" class="s-YF1DhM2Oq0sW"></circle><circle cx="237.32038834951453" cy="58.770833333333336" r="1.130097087378641" fill="#ffa500" class="s-YF1DhM2Oq0sW"></circle><circle cx="252.38834951456312" cy="58.770833333333336" r="1.130097087378641" fill="#ffa500" class="s-YF1DhM2Oq0sW"></circle><circle cx="263.68932038834953" cy="36.020833333333336" r="1.130097087378641" fill="#ffa500" class="s-YF1DhM2Oq0sW"></circle><circle cx="278.75728155339806" cy="36.020833333333336" r="1.130097087378641" fill="#ffa500" class="s-YF1DhM2Oq0sW"></circle><circle cx="263.68932038834953" cy="39.8125" r="1.130097087378641" fill="#ffa500" class="s-YF1DhM2Oq0sW"></circle><circle cx="278.75728155339806" cy="39.8125" r="1.130097087378641" fill="#ffa500" class="s-YF1DhM2Oq0sW"></circle><circle cx="263.68932038834953" cy="43.604166666666664" r="1.130097087378641" fill="#ffa500" class="s-YF1DhM2Oq0sW"></circle><circle cx="267.45631067961165" cy="43.604166666666664" r="1.130097087378641" fill="#ffa500" class="s-YF1DhM2Oq0sW"></circle><circle cx="278.75728155339806" cy="43.604166666666664" r="1.130097087378641" fill="#ffa500" class="s-YF1DhM2Oq0sW"></circle><circle cx="263.68932038834953" cy="47.39583333333333" r="1.130097087378641" fill="#ffa500" class="s-YF1DhM2Oq0sW"></circle><circle cx="271.2233009708738" cy="47.39583333333333" r="1.130097087378641" fill="#ffa500" class="s-YF1DhM2Oq0sW"></circle><circle cx="278.75728155339806" cy="47.39583333333333" r="1.130097087378641" fill="#ffa500" class="s-YF1DhM2Oq0sW"></circle><circle cx="263.68932038834953" cy="51.1875" r="1.130097087378641" fill="#ffa500" class="s-YF1DhM2Oq0sW"></circle><circle cx="274.99029126213594" cy="51.1875" r="1.130097087378641" fill="#ffa500" class="s-YF1DhM2Oq0sW"></circle><circle cx="278.75728155339806" cy="51.1875" r="1.130097087378641" fill="#ffa500" class="s-YF1DhM2Oq0sW"></circle><circle cx="263.68932038834953" cy="54.97916666666667" r="1.130097087378641" fill="#ffa500" class="s-YF1DhM2Oq0sW"></circle><circle cx="278.75728155339806" cy="54.97916666666667" r="1.130097087378641" fill="#ffa500" class="s-YF1DhM2Oq0sW"></circle><circle cx="263.68932038834953" cy="58.770833333333336" r="1.130097087378641" fill="#ffa500" class="s-YF1DhM2Oq0sW"></circle><circle cx="278.75728155339806" cy="58.770833333333336" r="1.130097087378641" fill="#ffa500" class="s-YF1DhM2Oq0sW"></circle><circle cx="290.05825242718447" cy="36.020833333333336" r="1.130097087378641" fill="#ffa500" class="s-YF1DhM2Oq0sW"></circle><circle cx="293.8252427184466" cy="36.020833333333336" r="1.130097087378641" fill="#ffa500" class="s-YF1DhM2Oq0sW"></circle><circle cx="297.5922330097087" cy="36.020833333333336" r="1.130097087378641" fill="#ffa500" class="s-YF1DhM2Oq0sW"></circle><circle cx="301.3592233009709" cy="36.020833333333336" r="1.130097087378641" fill="#ffa500" class="s-YF1DhM2Oq0sW"></circle><circle cx="305.126213592233" cy="36.020833333333336" r="1.130097087378641" fill="#ffa500" class="s-YF1DhM2Oq0sW"></circle><circle cx="290.05825242718447" cy="39.8125" r="1.130097087378641" fill="#ffa500" class="s-YF1DhM2Oq0sW"></circle><circle cx="290.05825242718447" cy="43.604166666666664" r="1.130097087378641" fill="#ffa500" class="s-YF1DhM2Oq0sW"></circle><circle cx="290.05825242718447" cy="47.39583333333333" r="1.130097087378641" fill="#ffa500" class="s-YF1DhM2Oq0sW"></circle><circle cx="293.8252427184466" cy="47.39583333333333" r="1.130097087378641" fill="#ffa500" class="s-YF1DhM2Oq0sW"></circle><circle cx="297.5922330097087" cy="47.39583333333333" r="1.130097087378641" fill="#ffa500" class="s-YF1DhM2Oq0sW"></circle><circle cx="301.3592233009709" cy="47.39583333333333" r="1.130097087378641" fill="#ffa500" class="s-YF1DhM2Oq0sW"></circle><circle cx="290.05825242718447" cy="51.1875" r="1.130097087378641" fill="#ffa500" class="s-YF1DhM2Oq0sW"></circle><circle cx="290.05825242718447" cy="54.97916666666667" r="1.130097087378641" fill="#ffa500" class="s-YF1DhM2Oq0sW"></circle><circle cx="290.05825242718447" cy="58.770833333333336" r="1.130097087378641" fill="#ffa500" class="s-YF1DhM2Oq0sW"></circle><circle cx="293.8252427184466" cy="58.770833333333336" r="1.130097087378641" fill="#ffa500" class="s-YF1DhM2Oq0sW"></circle><circle cx="297.5922330097087" cy="58.770833333333336" r="1.130097087378641" fill="#ffa500" class="s-YF1DhM2Oq0sW"></circle><circle cx="301.3592233009709" cy="58.770833333333336" r="1.130097087378641" fill="#ffa500" class="s-YF1DhM2Oq0sW"></circle><circle cx="305.126213592233" cy="58.770833333333336" r="1.130097087378641" fill="#ffa500" class="s-YF1DhM2Oq0sW"></circle></g><g class="s-YF1DhM2Oq0sW"><circle cx="82.87378640776699" cy="72.04166666666667" r="1.130097087378641" fill="#ffa500" class="s-YF1DhM2Oq0sW"></circle><circle cx="86.64077669902913" cy="72.04166666666667" r="1.130097087378641" fill="#ffa500" class="s-YF1DhM2Oq0sW"></circle><circle cx="90.40776699029126" cy="72.04166666666667" r="1.130097087378641" fill="#ffa500" class="s-YF1DhM2Oq0sW"></circle><circle cx="79.10679611650485" cy="75.83333333333334" r="1.130097087378641" fill="#ffa500" class="s-YF1DhM2Oq0sW"></circle><circle cx="94.1747572815534" cy="75.83333333333334" r="1.130097087378641" fill="#ffa500" class="s-YF1DhM2Oq0sW"></circle><circle cx="79.10679611650485" cy="79.625" r="1.130097087378641" fill="#ffa500" class="s-YF1DhM2Oq0sW"></circle><circle cx="79.10679611650485" cy="83.41666666666667" r="1.130097087378641" fill="#ffa500" class="s-YF1DhM2Oq0sW"></circle><circle cx="79.10679611650485" cy="87.20833333333333" r="1.130097087378641" fill="#ffa500" class="s-YF1DhM2Oq0sW"></circle><circle cx="79.10679611650485" cy="91" r="1.130097087378641" fill="#ffa500" class="s-YF1DhM2Oq0sW"></circle><circle cx="94.1747572815534" cy="91" r="1.130097087378641" fill="#ffa500" class="s-YF1DhM2Oq0sW"></circle><circle cx="82.87378640776699" cy="94.79166666666666" r="1.130097087378641" fill="#ffa500" class="s-YF1DhM2Oq0sW"></circle><circle cx="86.64077669902913" cy="94.79166666666666" r="1.130097087378641" fill="#ffa500" class="s-YF1DhM2Oq0sW"></circle><circle cx="90.40776699029126" cy="94.79166666666666" r="1.130097087378641" fill="#ffa500" class="s-YF1DhM2Oq0sW"></circle><circle cx="105.47572815533981" cy="72.04166666666667" r="1.130097087378641" fill="#ffa500" class="s-YF1DhM2Oq0sW"></circle><circle cx="120.54368932038834" cy="72.04166666666667" r="1.130097087378641" fill="#ffa500" class="s-YF1DhM2Oq0sW"></circle><circle cx="105.47572815533981" cy="75.83333333333334" r="1.130097087378641" fill="#ffa500" class="s-YF1DhM2Oq0sW"></circle><circle cx="120.54368932038834" cy="75.83333333333334" r="1.130097087378641" fill="#ffa500" class="s-YF1DhM2Oq0sW"></circle><circle cx="105.47572815533981" cy="79.625" r="1.130097087378641" fill="#ffa500" class="s-YF1DhM2Oq0sW"></circle><circle cx="120.54368932038834" cy="79.625" r="1.130097087378641" fill="#ffa500" class="s-YF1DhM2Oq0sW"></circle><circle cx="109.24271844660194" cy="83.41666666666667" r="1.130097087378641" fill="#ffa500" class="s-YF1DhM2Oq0sW"></circle><circle cx="116.7766990291262" cy="83.41666666666667" r="1.130097087378641" fill="#ffa500" class="s-YF1DhM2Oq0sW"></circle><circle cx="113.00970873786407" cy="87.20833333333333" r="1.130097087378641" fill="#ffa500" class="s-YF1DhM2Oq0sW"></circle><circle cx="113.00970873786407" cy="91" r="1.130097087378641" fill="#ffa500" class="s-YF1DhM2Oq0sW"></circle><circle cx="113.00970873786407" cy="94.79166666666666" r="1.130097087378641" fill="#ffa500" class="s-YF1DhM2Oq0sW"></circle><circle cx="135.6116504854369" cy="72.04166666666667" r="1.130097087378641" fill="#ffa500" class="s-YF1DhM2Oq0sW"></circle><circle cx="139.37864077669903" cy="72.04166666666667" r="1.130097087378641" fill="#ffa500" class="s-YF1DhM2Oq0sW"></circle><circle cx="143.14563106796118" cy="72.04166666666667" r="1.130097087378641" fill="#ffa500" class="s-YF1DhM2Oq0sW"></circle><circle cx="131.84466019417476" cy="75.83333333333334" r="1.130097087378641" fill="#ffa500" class="s-YF1DhM2Oq0sW"></circle><circle cx="146.9126213592233" cy="75.83333333333334" r="1.130097087378641" fill="#ffa500" class="s-YF1DhM2Oq0sW"></circle><circle cx="131.84466019417476" cy="79.625" r="1.130097087378641" fill="#ffa500" class="s-YF1DhM2Oq0sW"></circle><circle cx="131.84466019417476" cy="83.41666666666667" r="1.130097087378641" fill="#ffa500" class="s-YF1DhM2Oq0sW"></circle><circle cx="131.84466019417476" cy="87.20833333333333" r="1.130097087378641" fill="#ffa500" class="s-YF1DhM2Oq0sW"></circle><circle cx="131.84466019417476" cy="91" r="1.130097087378641" fill="#ffa500" class="s-YF1DhM2Oq0sW"></circle><circle cx="146.9126213592233" cy="91" r="1.130097087378641" fill="#ffa500" class="s-YF1DhM2Oq0sW"></circle><circle cx="135.6116504854369" cy="94.79166666666666" r="1.130097087378641" fill="#ffa500" class="s-YF1DhM2Oq0sW"></circle><circle cx="139.37864077669903" cy="94.79166666666666" r="1.130097087378641" fill="#ffa500" class="s-YF1DhM2Oq0sW"></circle><circle cx="143.14563106796118" cy="94.79166666666666" r="1.130097087378641" fill="#ffa500" class="s-YF1DhM2Oq0sW"></circle><circle cx="158.2135922330097" cy="72.04166666666667" r="1.130097087378641" fill="#ffa500" class="s-YF1DhM2Oq0sW"></circle><circle cx="158.2135922330097" cy="75.83333333333334" r="1.130097087378641" fill="#ffa500" class="s-YF1DhM2Oq0sW"></circle><circle cx="158.2135922330097" cy="79.625" r="1.130097087378641" fill="#ffa500" class="s-YF1DhM2Oq0sW"></circle><circle cx="158.2135922330097" cy="83.41666666666667" r="1.130097087378641" fill="#ffa500" class="s-YF1DhM2Oq0sW"></circle><circle cx="158.2135922330097" cy="87.20833333333333" r="1.130097087378641" fill="#ffa500" class="s-YF1DhM2Oq0sW"></circle><circle cx="158.2135922330097" cy="91" r="1.130097087378641" fill="#ffa500" class="s-YF1DhM2Oq0sW"></circle><circle cx="158.2135922330097" cy="94.79166666666666" r="1.130097087378641" fill="#ffa500" class="s-YF1DhM2Oq0sW"></circle><circle cx="161.98058252427182" cy="94.79166666666666" r="1.130097087378641" fill="#ffa500" class="s-YF1DhM2Oq0sW"></circle><circle cx="165.74757281553397" cy="94.79166666666666" r="1.130097087378641" fill="#ffa500" class="s-YF1DhM2Oq0sW"></circle><circle cx="169.51456310679612" cy="94.79166666666666" r="1.130097087378641" fill="#ffa500" class="s-YF1DhM2Oq0sW"></circle><circle cx="173.28155339805826" cy="94.79166666666666" r="1.130097087378641" fill="#ffa500" class="s-YF1DhM2Oq0sW"></circle><circle cx="188.3495145631068" cy="72.04166666666667" r="1.130097087378641" fill="#ffa500" class="s-YF1DhM2Oq0sW"></circle><circle cx="192.11650485436894" cy="72.04166666666667" r="1.130097087378641" fill="#ffa500" class="s-YF1DhM2Oq0sW"></circle><circle cx="195.88349514563106" cy="72.04166666666667" r="1.130097087378641" fill="#ffa500" class="s-YF1DhM2Oq0sW"></circle><circle cx="184.58252427184468" cy="75.83333333333334" r="1.130097087378641" fill="#ffa500" class="s-YF1DhM2Oq0sW"></circle><circle cx="199.6504854368932" cy="75.83333333333334" r="1.130097087378641" fill="#ffa500" class="s-YF1DhM2Oq0sW"></circle><circle cx="184.58252427184468" cy="79.625" r="1.130097087378641" fill="#ffa500" class="s-YF1DhM2Oq0sW"></circle><circle cx="199.6504854368932" cy="79.625" r="1.130097087378641" fill="#ffa500" class="s-YF1DhM2Oq0sW"></circle><circle cx="184.58252427184468" cy="83.41666666666667" r="1.130097087378641" fill="#ffa500" class="s-YF1DhM2Oq0sW"></circle><circle cx="199.6504854368932" cy="83.41666666666667" r="1.130097087378641" fill="#ffa500" class="s-YF1DhM2Oq0sW"></circle><circle cx="184.58252427184468" cy="87.20833333333333" r="1.130097087378641" fill="#ffa500" class="s-YF1DhM2Oq0sW"></circle><circle cx="199.6504854368932" cy="87.20833333333333" r="1.130097087378641" fill="#ffa500" class="s-YF1DhM2Oq0sW"></circle><circle cx="184.58252427184468" cy="91" r="1.130097087378641" fill="#ffa500" class="s-YF1DhM2Oq0sW"></circle><circle cx="199.6504854368932" cy="91" r="1.130097087378641" fill="#ffa500" class="s-YF1DhM2Oq0sW"></circle><circle cx="188.3495145631068" cy="94.79166666666666" r="1.130097087378641" fill="#ffa500" class="s-YF1DhM2Oq0sW"></circle><circle cx="192.11650485436894" cy="94.79166666666666" r="1.130097087378641" fill="#ffa500" class="s-YF1DhM2Oq0sW"></circle><circle cx="195.88349514563106" cy="94.79166666666666" r="1.130097087378641" fill="#ffa500" class="s-YF1DhM2Oq0sW"></circle><circle cx="210.95145631067962" cy="72.04166666666667" r="1.130097087378641" fill="#ffa500" class="s-YF1DhM2Oq0sW"></circle><circle cx="214.71844660194174" cy="72.04166666666667" r="1.130097087378641" fill="#ffa500" class="s-YF1DhM2Oq0sW"></circle><circle cx="218.48543689320388" cy="72.04166666666667" r="1.130097087378641" fill="#ffa500" class="s-YF1DhM2Oq0sW"></circle><circle cx="222.252427184466" cy="72.04166666666667" r="1.130097087378641" fill="#ffa500" class="s-YF1DhM2Oq0sW"></circle><circle cx="226.01941747572815" cy="72.04166666666667" r="1.130097087378641" fill="#ffa500" class="s-YF1DhM2Oq0sW"></circle><circle cx="218.48543689320388" cy="75.83333333333334" r="1.130097087378641" fill="#ffa500" class="s-YF1DhM2Oq0sW"></circle><circle cx="218.48543689320388" cy="79.625" r="1.130097087378641" fill="#ffa500" class="s-YF1DhM2Oq0sW"></circle><circle cx="218.48543689320388" cy="83.41666666666667" r="1.130097087378641" fill="#ffa500" class="s-YF1DhM2Oq0sW"></circle><circle cx="218.48543689320388" cy="87.20833333333333" r="1.130097087378641" fill="#ffa500" class="s-YF1DhM2Oq0sW"></circle><circle cx="218.48543689320388" cy="91" r="1.130097087378641" fill="#ffa500" class="s-YF1DhM2Oq0sW"></circle><circle cx="218.48543689320388" cy="94.79166666666666" r="1.130097087378641" fill="#ffa500" class="s-YF1DhM2Oq0sW"></circle><circle cx="237.32038834951453" cy="72.04166666666667" r="1.130097087378641" fill="#ffa500" class="s-YF1DhM2Oq0sW"></circle><circle cx="241.08737864077668" cy="72.04166666666667" r="1.130097087378641" fill="#ffa500" class="s-YF1DhM2Oq0sW"></circle><circle cx="244.85436893203885" cy="72.04166666666667" r="1.130097087378641" fill="#ffa500" class="s-YF1DhM2Oq0sW"></circle><circle cx="248.621359223301" cy="72.04166666666667" r="1.130097087378641" fill="#ffa500" class="s-YF1DhM2Oq0sW"></circle><circle cx="237.32038834951453" cy="75.83333333333334" r="1.130097087378641" fill="#ffa500" class="s-YF1DhM2Oq0sW"></circle><circle cx="252.38834951456312" cy="75.83333333333334" r="1.130097087378641" fill="#ffa500" class="s-YF1DhM2Oq0sW"></circle><circle cx="237.32038834951453" cy="79.625" r="1.130097087378641" fill="#ffa500" class="s-YF1DhM2Oq0sW"></circle><circle cx="252.38834951456312" cy="79.625" r="1.130097087378641" fill="#ffa500" class="s-YF1DhM2Oq0sW"></circle><circle cx="237.32038834951453" cy="83.41666666666667" r="1.130097087378641" fill="#ffa500" class="s-YF1DhM2Oq0sW"></circle><circle cx="241.08737864077668" cy="83.41666666666667" r="1.130097087378641" fill="#ffa500" class="s-YF1DhM2Oq0sW"></circle><circle cx="244.85436893203885" cy="83.41666666666667" r="1.130097087378641" fill="#ffa500" class="s-YF1DhM2Oq0sW"></circle><circle cx="248.621359223301" cy="83.41666666666667" r="1.130097087378641" fill="#ffa500" class="s-YF1DhM2Oq0sW"></circle><circle cx="237.32038834951453" cy="87.20833333333333" r="1.130097087378641" fill="#ffa500" class="s-YF1DhM2Oq0sW"></circle><circle cx="244.85436893203885" cy="87.20833333333333" r="1.130097087378641" fill="#ffa500" class="s-YF1DhM2Oq0sW"></circle><circle cx="237.32038834951453" cy="91" r="1.130097087378641" fill="#ffa500" class="s-YF1DhM2Oq0sW"></circle><circle cx="248.621359223301" cy="91" r="1.130097087378641" fill="#ffa500" class="s-YF1DhM2Oq0sW"></circle><circle cx="237.32038834951453" cy="94.79166666666666" r="1.130097087378641" fill="#ffa500" class="s-YF1DhM2Oq0sW"></circle><circle cx="252.38834951456312" cy="94.79166666666666" r="1.130097087378641" fill="#ffa500" class="s-YF1DhM2Oq0sW"></circle><circle cx="267.45631067961165" cy="72.04166666666667" r="1.130097087378641" fill="#ffa500" class="s-YF1DhM2Oq0sW"></circle><circle cx="271.2233009708738" cy="72.04166666666667" r="1.130097087378641" fill="#ffa500" class="s-YF1DhM2Oq0sW"></circle><circle cx="274.99029126213594" cy="72.04166666666667" r="1.130097087378641" fill="#ffa500" class="s-YF1DhM2Oq0sW"></circle><circle cx="263.68932038834953" cy="75.83333333333334" r="1.130097087378641" fill="#ffa500" class="s-YF1DhM2Oq0sW"></circle><circle cx="278.75728155339806" cy="75.83333333333334" r="1.130097087378641" fill="#ffa500" class="s-YF1DhM2Oq0sW"></circle><circle cx="263.68932038834953" cy="79.625" r="1.130097087378641" fill="#ffa500" class="s-YF1DhM2Oq0sW"></circle><circle cx="278.75728155339806" cy="79.625" r="1.130097087378641" fill="#ffa500" class="s-YF1DhM2Oq0sW"></circle><circle cx="263.68932038834953" cy="83.41666666666667" r="1.130097087378641" fill="#ffa500" class="s-YF1DhM2Oq0sW"></circle><circle cx="278.75728155339806" cy="83.41666666666667" r="1.130097087378641" fill="#ffa500" class="s-YF1DhM2Oq0sW"></circle><circle cx="263.68932038834953" cy="87.20833333333333" r="1.130097087378641" fill="#ffa500" class="s-YF1DhM2Oq0sW"></circle><circle cx="278.75728155339806" cy="87.20833333333333" r="1.130097087378641" fill="#ffa500" class="s-YF1DhM2Oq0sW"></circle><circle cx="263.68932038834953" cy="91" r="1.130097087378641" fill="#ffa500" class="s-YF1DhM2Oq0sW"></circle><circle cx="278.75728155339806" cy="91" r="1.130097087378641" fill="#ffa500" class="s-YF1DhM2Oq0sW"></circle><circle cx="267.45631067961165" cy="94.79166666666666" r="1.130097087378641" fill="#ffa500" class="s-YF1DhM2Oq0sW"></circle><circle cx="271.2233009708738" cy="94.79166666666666" r="1.130097087378641" fill="#ffa500" class="s-YF1DhM2Oq0sW"></circle><circle cx="274.99029126213594" cy="94.79166666666666" r="1.130097087378641" fill="#ffa500" class="s-YF1DhM2Oq0sW"></circle><circle cx="290.05825242718447" cy="72.04166666666667" r="1.130097087378641" fill="#ffa500" class="s-YF1DhM2Oq0sW"></circle><circle cx="305.126213592233" cy="72.04166666666667" r="1.130097087378641" fill="#ffa500" class="s-YF1DhM2Oq0sW"></circle><circle cx="290.05825242718447" cy="75.83333333333334" r="1.130097087378641" fill="#ffa500" class="s-YF1DhM2Oq0sW"></circle><circle cx="305.126213592233" cy="75.83333333333334" r="1.130097087378641" fill="#ffa500" class="s-YF1DhM2Oq0sW"></circle><circle cx="290.05825242718447" cy="79.625" r="1.130097087378641" fill="#ffa500" class="s-YF1DhM2Oq0sW"></circle><circle cx="293.8252427184466" cy="79.625" r="1.130097087378641" fill="#ffa500" class="s-YF1DhM2Oq0sW"></circle><circle cx="305.126213592233" cy="79.625" r="1.130097087378641" fill="#ffa500" class="s-YF1DhM2Oq0sW"></circle><circle cx="290.05825242718447" cy="83.41666666666667" r="1.130097087378641" fill="#ffa500" class="s-YF1DhM2Oq0sW"></circle><circle cx="297.5922330097087" cy="83.41666666666667" r="1.130097087378641" fill="#ffa500" class="s-YF1DhM2Oq0sW"></circle><circle cx="305.126213592233" cy="83.41666666666667" r="1.130097087378641" fill="#ffa500" class="s-YF1DhM2Oq0sW"></circle><circle cx="290.05825242718447" cy="87.20833333333333" r="1.130097087378641" fill="#ffa500" class="s-YF1DhM2Oq0sW"></circle><circle cx="301.3592233009709" cy="87.20833333333333" r="1.130097087378641" fill="#ffa500" class="s-YF1DhM2Oq0sW"></circle><circle cx="305.126213592233" cy="87.20833333333333" r="1.130097087378641" fill="#ffa500" class="s-YF1DhM2Oq0sW"></circle><circle cx="290.05825242718447" cy="91" r="1.130097087378641" fill="#ffa500" class="s-YF1DhM2Oq0sW"></circle><circle cx="305.126213592233" cy="91" r="1.130097087378641" fill="#ffa500" class="s-YF1DhM2Oq0sW"></circle><circle cx="290.05825242718447" cy="94.79166666666666" r="1.130097087378641" fill="#ffa500" class="s-YF1DhM2Oq0sW"></circle><circle cx="305.126213592233" cy="94.79166666666666" r="1.130097087378641" fill="#ffa500" class="s-YF1DhM2Oq0sW"></circle></g><g class="s-YF1DhM2Oq0sW"><circle cx="131.84466019417476" cy="108.0625" r="1.130097087378641" fill="#ffa500" class="s-YF1DhM2Oq0sW"></circle><circle cx="135.6116504854369" cy="108.0625" r="1.130097087378641" fill="#ffa500" class="s-YF1DhM2Oq0sW"></circle><circle cx="139.37864077669903" cy="108.0625" r="1.130097087378641" fill="#ffa500" class="s-YF1DhM2Oq0sW"></circle><circle cx="143.14563106796118" cy="108.0625" r="1.130097087378641" fill="#ffa500" class="s-YF1DhM2Oq0sW"></circle><circle cx="146.9126213592233" cy="108.0625" r="1.130097087378641" fill="#ffa500" class="s-YF1DhM2Oq0sW"></circle><circle cx="139.37864077669903" cy="111.85416666666666" r="1.130097087378641" fill="#ffa500" class="s-YF1DhM2Oq0sW"></circle><circle cx="139.37864077669903" cy="115.64583333333333" r="1.130097087378641" fill="#ffa500" class="s-YF1DhM2Oq0sW"></circle><circle cx="139.37864077669903" cy="119.4375" r="1.130097087378641" fill="#ffa500" class="s-YF1DhM2Oq0sW"></circle><circle cx="139.37864077669903" cy="123.22916666666667" r="1.130097087378641" fill="#ffa500" class="s-YF1DhM2Oq0sW"></circle><circle cx="139.37864077669903" cy="127.02083333333334" r="1.130097087378641" fill="#ffa500" class="s-YF1DhM2Oq0sW"></circle><circle cx="139.37864077669903" cy="130.8125" r="1.130097087378641" fill="#ffa500" class="s-YF1DhM2Oq0sW"></circle><circle cx="161.98058252427182" cy="108.0625" r="1.130097087378641" fill="#ffa500" class="s-YF1DhM2Oq0sW"></circle><circle cx="165.74757281553397" cy="108.0625" r="1.130097087378641" fill="#ffa500" class="s-YF1DhM2Oq0sW"></circle><circle cx="169.51456310679612" cy="108.0625" r="1.130097087378641" fill="#ffa500" class="s-YF1DhM2Oq0sW"></circle><circle cx="158.2135922330097" cy="111.85416666666666" r="1.130097087378641" fill="#ffa500" class="s-YF1DhM2Oq0sW"></circle><circle cx="173.28155339805826" cy="111.85416666666666" r="1.130097087378641" fill="#ffa500" class="s-YF1DhM2Oq0sW"></circle><circle cx="158.2135922330097" cy="115.64583333333333" r="1.130097087378641" fill="#ffa500" class="s-YF1DhM2Oq0sW"></circle><circle cx="173.28155339805826" cy="115.64583333333333" r="1.130097087378641" fill="#ffa500" class="s-YF1DhM2Oq0sW"></circle><circle cx="158.2135922330097" cy="119.4375" r="1.130097087378641" fill="#ffa500" class="s-YF1DhM2Oq0sW"></circle><circle cx="173.28155339805826" cy="119.4375" r="1.130097087378641" fill="#ffa500" class="s-YF1DhM2Oq0sW"></circle><circle cx="158.2135922330097" cy="123.22916666666667" r="1.130097087378641" fill="#ffa500" class="s-YF1DhM2Oq0sW"></circle><circle cx="173.28155339805826" cy="123.22916666666667" r="1.130097087378641" fill="#ffa500" class="s-YF1DhM2Oq0sW"></circle><circle cx="158.2135922330097" cy="127.02083333333334" r="1.130097087378641" fill="#ffa500" class="s-YF1DhM2Oq0sW"></circle><circle cx="173.28155339805826" cy="127.02083333333334" r="1.130097087378641" fill="#ffa500" class="s-YF1DhM2Oq0sW"></circle><circle cx="161.98058252427182" cy="130.8125" r="1.130097087378641" fill="#ffa500" class="s-YF1DhM2Oq0sW"></circle><circle cx="165.74757281553397" cy="130.8125" r="1.130097087378641" fill="#ffa500" class="s-YF1DhM2Oq0sW"></circle><circle cx="169.51456310679612" cy="130.8125" r="1.130097087378641" fill="#ffa500" class="s-YF1DhM2Oq0sW"></circle><circle cx="184.58252427184468" cy="108.0625" r="1.130097087378641" fill="#ffa500" class="s-YF1DhM2Oq0sW"></circle><circle cx="188.3495145631068" cy="108.0625" r="1.130097087378641" fill="#ffa500" class="s-YF1DhM2Oq0sW"></circle><circle cx="192.11650485436894" cy="108.0625" r="1.130097087378641" fill="#ffa500" class="s-YF1DhM2Oq0sW"></circle><circle cx="195.88349514563106" cy="108.0625" r="1.130097087378641" fill="#ffa500" class="s-YF1DhM2Oq0sW"></circle><circle cx="188.3495145631068" cy="111.85416666666666" r="1.130097087378641" fill="#ffa500" class="s-YF1DhM2Oq0sW"></circle><circle cx="199.6504854368932" cy="111.85416666666666" r="1.130097087378641" fill="#ffa500" class="s-YF1DhM2Oq0sW"></circle><circle cx="188.3495145631068" cy="115.64583333333333" r="1.130097087378641" fill="#ffa500" class="s-YF1DhM2Oq0sW"></circle><circle cx="199.6504854368932" cy="115.64583333333333" r="1.130097087378641" fill="#ffa500" class="s-YF1DhM2Oq0sW"></circle><circle cx="188.3495145631068" cy="119.4375" r="1.130097087378641" fill="#ffa500" class="s-YF1DhM2Oq0sW"></circle><circle cx="199.6504854368932" cy="119.4375" r="1.130097087378641" fill="#ffa500" class="s-YF1DhM2Oq0sW"></circle><circle cx="188.3495145631068" cy="123.22916666666667" r="1.130097087378641" fill="#ffa500" class="s-YF1DhM2Oq0sW"></circle><circle cx="199.6504854368932" cy="123.22916666666667" r="1.130097087378641" fill="#ffa500" class="s-YF1DhM2Oq0sW"></circle><circle cx="188.3495145631068" cy="127.02083333333334" r="1.130097087378641" fill="#ffa500" class="s-YF1DhM2Oq0sW"></circle><circle cx="199.6504854368932" cy="127.02083333333334" r="1.130097087378641" fill="#ffa500" class="s-YF1DhM2Oq0sW"></circle><circle cx="184.58252427184468" cy="130.8125" r="1.130097087378641" fill="#ffa500" class="s-YF1DhM2Oq0sW"></circle><circle cx="188.3495145631068" cy="130.8125" r="1.130097087378641" fill="#ffa500" class="s-YF1DhM2Oq0sW"></circle><circle cx="192.11650485436894" cy="130.8125" r="1.130097087378641" fill="#ffa500" class="s-YF1DhM2Oq0sW"></circle><circle cx="195.88349514563106" cy="130.8125" r="1.130097087378641" fill="#ffa500" class="s-YF1DhM2Oq0sW"></circle><circle cx="218.48543689320388" cy="108.0625" r="1.130097087378641" fill="#ffa500" class="s-YF1DhM2Oq0sW"></circle><circle cx="214.71844660194174" cy="111.85416666666666" r="1.130097087378641" fill="#ffa500" class="s-YF1DhM2Oq0sW"></circle><circle cx="222.252427184466" cy="111.85416666666666" r="1.130097087378641" fill="#ffa500" class="s-YF1DhM2Oq0sW"></circle><circle cx="210.95145631067962" cy="115.64583333333333" r="1.130097087378641" fill="#ffa500" class="s-YF1DhM2Oq0sW"></circle><circle cx="226.01941747572815" cy="115.64583333333333" r="1.130097087378641" fill="#ffa500" class="s-YF1DhM2Oq0sW"></circle><circle cx="210.95145631067962" cy="119.4375" r="1.130097087378641" fill="#ffa500" class="s-YF1DhM2Oq0sW"></circle><circle cx="226.01941747572815" cy="119.4375" r="1.130097087378641" fill="#ffa500" class="s-YF1DhM2Oq0sW"></circle><circle cx="210.95145631067962" cy="123.22916666666667" r="1.130097087378641" fill="#ffa500" class="s-YF1DhM2Oq0sW"></circle><circle cx="214.71844660194174" cy="123.22916666666667" r="1.130097087378641" fill="#ffa500" class="s-YF1DhM2Oq0sW"></circle><circle cx="218.48543689320388" cy="123.22916666666667" r="1.130097087378641" fill="#ffa500" class="s-YF1DhM2Oq0sW"></circle><circle cx="222.252427184466" cy="123.22916666666667" r="1.130097087378641" fill="#ffa500" class="s-YF1DhM2Oq0sW"></circle><circle cx="226.01941747572815" cy="123.22916666666667" r="1.130097087378641" fill="#ffa500" class="s-YF1DhM2Oq0sW"></circle><circle cx="210.95145631067962" cy="127.02083333333334" r="1.130097087378641" fill="#ffa500" class="s-YF1DhM2Oq0sW"></circle><circle cx="226.01941747572815" cy="127.02083333333334" r="1.130097087378641" fill="#ffa500" class="s-YF1DhM2Oq0sW"></circle><circle cx="210.95145631067962" cy="130.8125" r="1.130097087378641" fill="#ffa500" class="s-YF1DhM2Oq0sW"></circle><circle cx="226.01941747572815" cy="130.8125" r="1.130097087378641" fill="#ffa500" class="s-YF1DhM2Oq0sW"></circle><circle cx="237.32038834951453" cy="108.0625" r="1.130097087378641" fill="#ffa500" class="s-YF1DhM2Oq0sW"></circle><circle cx="252.38834951456312" cy="108.0625" r="1.130097087378641" fill="#ffa500" class="s-YF1DhM2Oq0sW"></circle><circle cx="237.32038834951453" cy="111.85416666666666" r="1.130097087378641" fill="#ffa500" class="s-YF1DhM2Oq0sW"></circle><circle cx="252.38834951456312" cy="111.85416666666666" r="1.130097087378641" fill="#ffa500" class="s-YF1DhM2Oq0sW"></circle><circle cx="237.32038834951453" cy="115.64583333333333" r="1.130097087378641" fill="#ffa500" class="s-YF1DhM2Oq0sW"></circle><circle cx="252.38834951456312" cy="115.64583333333333" r="1.130097087378641" fill="#ffa500" class="s-YF1DhM2Oq0sW"></circle><circle cx="241.08737864077668" cy="119.4375" r="1.130097087378641" fill="#ffa500" class="s-YF1DhM2Oq0sW"></circle><circle cx="248.621359223301" cy="119.4375" r="1.130097087378641" fill="#ffa500" class="s-YF1DhM2Oq0sW"></circle><circle cx="244.85436893203885" cy="123.22916666666667" r="1.130097087378641" fill="#ffa500" class="s-YF1DhM2Oq0sW"></circle><circle cx="244.85436893203885" cy="127.02083333333334" r="1.130097087378641" fill="#ffa500" class="s-YF1DhM2Oq0sW"></circle><circle cx="244.85436893203885" cy="130.8125" r="1.130097087378641" fill="#ffa500" class="s-YF1DhM2Oq0sW"></circle></g><g class="s-YF1DhM2Oq0sW"><circle cx="161.98058252427182" cy="144.08333333333334" r="1.130097087378641" fill="#ffa500" class="s-YF1DhM2Oq0sW"></circle><circle cx="165.74757281553397" cy="144.08333333333334" r="1.130097087378641" fill="#ffa500" class="s-YF1DhM2Oq0sW"></circle><circle cx="169.51456310679612" cy="144.08333333333334" r="1.130097087378641" fill="#ffa500" class="s-YF1DhM2Oq0sW"></circle><circle cx="158.2135922330097" cy="147.875" r="1.130097087378641" fill="#ffa500" class="s-YF1DhM2Oq0sW"></circle><circle cx="173.28155339805826" cy="147.875" r="1.130097087378641" fill="#ffa500" class="s-YF1DhM2Oq0sW"></circle><circle cx="173.28155339805826" cy="151.66666666666669" r="1.130097087378641" fill="#ffa500" class="s-YF1DhM2Oq0sW"></circle><circle cx="165.74757281553397" cy="155.45833333333331" r="1.130097087378641" fill="#ffa500" class="s-YF1DhM2Oq0sW"></circle><circle cx="169.51456310679612" cy="155.45833333333331" r="1.130097087378641" fill="#ffa500" class="s-YF1DhM2Oq0sW"></circle><circle cx="173.28155339805826" cy="159.25" r="1.130097087378641" fill="#ffa500" class="s-YF1DhM2Oq0sW"></circle><circle cx="158.2135922330097" cy="163.04166666666666" r="1.130097087378641" fill="#ffa500" class="s-YF1DhM2Oq0sW"></circle><circle cx="173.28155339805826" cy="163.04166666666666" r="1.130097087378641" fill="#ffa500" class="s-YF1DhM2Oq0sW"></circle><circle cx="161.98058252427182" cy="166.83333333333334" r="1.130097087378641" fill="#ffa500" class="s-YF1DhM2Oq0sW"></circle><circle cx="165.74757281553397" cy="166.83333333333334" r="1.130097087378641" fill="#ffa500" class="s-YF1DhM2Oq0sW"></circle><circle cx="169.51456310679612" cy="166.83333333333334" r="1.130097087378641" fill="#ffa500" class="s-YF1DhM2Oq0sW"></circle><circle cx="188.3495145631068" cy="144.08333333333334" r="1.130097087378641" fill="#ffa500" class="s-YF1DhM2Oq0sW"></circle><circle cx="192.11650485436894" cy="144.08333333333334" r="1.130097087378641" fill="#ffa500" class="s-YF1DhM2Oq0sW"></circle><circle cx="195.88349514563106" cy="144.08333333333334" r="1.130097087378641" fill="#ffa500" class="s-YF1DhM2Oq0sW"></circle><circle cx="184.58252427184468" cy="147.875" r="1.130097087378641" fill="#ffa500" class="s-YF1DhM2Oq0sW"></circle><circle cx="199.6504854368932" cy="147.875" r="1.130097087378641" fill="#ffa500" class="s-YF1DhM2Oq0sW"></circle><circle cx="199.6504854368932" cy="151.66666666666669" r="1.130097087378641" fill="#ffa500" class="s-YF1DhM2Oq0sW"></circle><circle cx="192.11650485436894" cy="155.45833333333331" r="1.130097087378641" fill="#ffa500" class="s-YF1DhM2Oq0sW"></circle><circle cx="195.88349514563106" cy="155.45833333333331" r="1.130097087378641" fill="#ffa500" class="s-YF1DhM2Oq0sW"></circle><circle cx="199.6504854368932" cy="159.25" r="1.130097087378641" fill="#ffa500" class="s-YF1DhM2Oq0sW"></circle><circle cx="184.58252427184468" cy="163.04166666666666" r="1.130097087378641" fill="#ffa500" class="s-YF1DhM2Oq0sW"></circle><circle cx="199.6504854368932" cy="163.04166666666666" r="1.130097087378641" fill="#ffa500" class="s-YF1DhM2Oq0sW"></circle><circle cx="188.3495145631068" cy="166.83333333333334" r="1.130097087378641" fill="#ffa500" class="s-YF1DhM2Oq0sW"></circle><circle cx="192.11650485436894" cy="166.83333333333334" r="1.130097087378641" fill="#ffa500" class="s-YF1DhM2Oq0sW"></circle><circle cx="195.88349514563106" cy="166.83333333333334" r="1.130097087378641" fill="#ffa500" class="s-YF1DhM2Oq0sW"></circle><circle cx="214.71844660194174" cy="144.08333333333334" r="1.130097087378641" fill="#ffa500" class="s-YF1DhM2Oq0sW"></circle><circle cx="218.48543689320388" cy="144.08333333333334" r="1.130097087378641" fill="#ffa500" class="s-YF1DhM2Oq0sW"></circle><circle cx="222.252427184466" cy="144.08333333333334" r="1.130097087378641" fill="#ffa500" class="s-YF1DhM2Oq0sW"></circle><circle cx="226.01941747572815" cy="144.08333333333334" r="1.130097087378641" fill="#ffa500" class="s-YF1DhM2Oq0sW"></circle><circle cx="210.95145631067962" cy="147.875" r="1.130097087378641" fill="#ffa500" class="s-YF1DhM2Oq0sW"></circle><circle cx="226.01941747572815" cy="147.875" r="1.130097087378641" fill="#ffa500" class="s-YF1DhM2Oq0sW"></circle><circle cx="210.95145631067962" cy="151.66666666666669" r="1.130097087378641" fill="#ffa500" class="s-YF1DhM2Oq0sW"></circle><circle cx="222.252427184466" cy="151.66666666666669" r="1.130097087378641" fill="#ffa500" class="s-YF1DhM2Oq0sW"></circle><circle cx="226.01941747572815" cy="151.66666666666669" r="1.130097087378641" fill="#ffa500" class="s-YF1DhM2Oq0sW"></circle><circle cx="210.95145631067962" cy="155.45833333333331" r="1.130097087378641" fill="#ffa500" class="s-YF1DhM2Oq0sW"></circle><circle cx="218.48543689320388" cy="155.45833333333331" r="1.130097087378641" fill="#ffa500" class="s-YF1DhM2Oq0sW"></circle><circle cx="226.01941747572815" cy="155.45833333333331" r="1.130097087378641" fill="#ffa500" class="s-YF1DhM2Oq0sW"></circle><circle cx="210.95145631067962" cy="159.25" r="1.130097087378641" fill="#ffa500" class="s-YF1DhM2Oq0sW"></circle><circle cx="214.71844660194174" cy="159.25" r="1.130097087378641" fill="#ffa500" class="s-YF1DhM2Oq0sW"></circle><circle cx="226.01941747572815" cy="159.25" r="1.130097087378641" fill="#ffa500" class="s-YF1DhM2Oq0sW"></circle><circle cx="210.95145631067962" cy="163.04166666666666" r="1.130097087378641" fill="#ffa500" class="s-YF1DhM2Oq0sW"></circle><circle cx="226.01941747572815" cy="163.04166666666666" r="1.130097087378641" fill="#ffa500" class="s-YF1DhM2Oq0sW"></circle><circle cx="214.71844660194174" cy="166.83333333333334" r="1.130097087378641" fill="#ffa500" class="s-YF1DhM2Oq0sW"></circle><circle cx="218.48543689320388" cy="166.83333333333334" r="1.130097087378641" fill="#ffa500" class="s-YF1DhM2Oq0sW"></circle><circle cx="222.252427184466" cy="166.83333333333334" r="1.130097087378641" fill="#ffa500" class="s-YF1DhM2Oq0sW"></circle></g></g></g></svg>